<svg viewBox="0 0 820 820" xmlns="http://www.w3.org/2000/svg" width="2500" height="2500"><path d="M0 0h820v820H0z" fill="#ffc403"/><text x="410" y="430" font-family="Arial, sans-serif" font-weight="bold" font-size="160" text-anchor="middle" fill="#000">AHC</text><path d="M410 553c-75.6 0-146.9-14.1-200.7-39.8C153 486.3 122 449.7 122 410s31-76.3 87.3-103.2C263.1 281.1 334.4 267 410 267s146.9 14.1 200.7 39.8C667 333.7 698 370.3 698 410s-31 76.3-87.3 103.2C556.9 538.9 485.6 553 410 553zm0-264.9c-72.6 0-140.6 13.4-191.6 37.8-48.5 23.2-75.3 53.1-75.3 84.2s26.7 61 75.3 84.1c51 24.4 119.1 37.8 191.6 37.8s140.6-13.4 191.6-37.8c48.5-23.1 75.3-53.1 75.3-84.1s-26.7-61-75.3-84.1c-51-24.5-119-37.9-191.6-37.9z"/></svg>